<svg width="120" height="61" viewBox="0 0 120 61" fill="none" xmlns="http://www.w3.org/2000/svg">
<g id="Group 5">
<g id="Group 1">
<path id="T" d="M0 0V13.3717H55.7291V45.0096H70.2374V13.3717H119.855V0H0Z" fill="#E8E8E8"/>
<path id="Subtract" fill-rule="evenodd" clip-rule="evenodd" d="M73.1899 17.9072C74.1174 26.1354 79.9956 29.1245 89.7127 29.1245H103.348C104.798 29.1245 105.785 29.585 105.785 30.7362C105.785 32.0026 104.798 32.4631 103.348 32.4631H79.4095V45.0117H103.348C113.966 45.0117 120 41.4428 120 31.3694C120 22.5803 115.406 18.7429 107.183 17.9072H73.1899Z" fill="#E8E8E8"/>
<path id="Subtract_2" fill-rule="evenodd" clip-rule="evenodd" d="M36.9017 17.9072V21.5575C36.9017 24.6446 34.5228 25.8451 30.6934 25.8451H14.2733H0V44.8245H14.2733V38.3075H30.6934C43.7483 38.3075 51.175 33.9056 51.175 21.5575V18.6992C51.175 18.4315 51.1715 18.1675 51.1646 17.9072H36.9017Z" fill="#E8E8E8"/>
</g>
<g id="PacificTech Solutions">
<path d="M3.83796 53.8573C4.75851 53.8573 5.48276 54.0758 6.01072 54.513C6.53868 54.9502 6.80266 55.5521 6.80266 56.3188C6.80266 57.0855 6.53868 57.6875 6.01072 58.1246C5.48276 58.5618 4.75851 58.7804 3.83796 58.7804H2.08147V60.9191H1.06616V53.8573H3.83796ZM3.8075 57.9027C4.45053 57.9027 4.94126 57.7682 5.2797 57.4992C5.61813 57.2234 5.78735 56.83 5.78735 56.3188C5.78735 55.8077 5.61813 55.4176 5.2797 55.1486C4.94126 54.8728 4.45053 54.7349 3.8075 54.7349H2.08147V57.9027H3.8075Z" fill="#E8E8E8"/>
<path d="M10.5698 55.5218C11.3143 55.5218 11.8829 55.7034 12.2755 56.0666C12.6749 56.4298 12.8745 56.9712 12.8745 57.6908V60.9191H11.9506V60.2129C11.7882 60.4618 11.5546 60.6534 11.25 60.788C10.9522 60.9157 10.5969 60.9796 10.184 60.9796C9.58154 60.9796 9.09758 60.835 8.73207 60.5458C8.37333 60.2566 8.19395 59.8766 8.19395 59.4059C8.19395 58.9351 8.36656 58.5584 8.71176 58.276C9.05697 57.9868 9.60524 57.8422 10.3566 57.8422H11.8998V57.6505C11.8998 57.2335 11.778 56.914 11.5343 56.6921C11.2906 56.4701 10.9319 56.3592 10.4581 56.3592C10.14 56.3592 9.8286 56.413 9.52401 56.5206C9.21942 56.6215 8.96221 56.7593 8.75237 56.9342L8.34625 56.2078C8.62377 55.9859 8.95544 55.8178 9.34125 55.7034C9.72707 55.5824 10.1366 55.5218 10.5698 55.5218ZM10.3464 60.2331C10.7187 60.2331 11.0402 60.1524 11.311 59.991C11.5817 59.8228 11.778 59.5874 11.8998 59.2848V58.5383H10.3972C9.57139 58.5383 9.1585 58.814 9.1585 59.3655C9.1585 59.6345 9.26341 59.8464 9.47324 60.0011C9.68308 60.1558 9.97413 60.2331 10.3464 60.2331Z" fill="#E8E8E8"/>
<path d="M17.5611 60.9796C17.0128 60.9796 16.5221 60.8619 16.0889 60.6265C15.6624 60.3912 15.3274 60.0683 15.0837 59.6581C14.84 59.2411 14.7182 58.7703 14.7182 58.2457C14.7182 57.7211 14.84 57.2537 15.0837 56.8434C15.3274 56.4264 15.6624 56.1036 16.0889 55.8749C16.5221 55.6395 17.0128 55.5218 17.5611 55.5218C18.0484 55.5218 18.4816 55.6194 18.8607 55.8144C19.2465 56.0094 19.5443 56.2919 19.7541 56.6618L19.013 57.136C18.8437 56.8804 18.6339 56.6887 18.3835 56.5609C18.133 56.4332 17.8555 56.3693 17.5509 56.3693C17.1989 56.3693 16.8808 56.4466 16.5965 56.6013C16.319 56.756 16.099 56.9779 15.9366 57.2671C15.7809 57.5496 15.703 57.8758 15.703 58.2457C15.703 58.6223 15.7809 58.9552 15.9366 59.2444C16.099 59.5269 16.319 59.7455 16.5965 59.9002C16.8808 60.0549 17.1989 60.1322 17.5509 60.1322C17.8555 60.1322 18.133 60.0683 18.3835 59.9405C18.6339 59.8128 18.8437 59.6211 19.013 59.3655L19.7541 59.8296C19.5443 60.1995 19.2465 60.4853 18.8607 60.6871C18.4816 60.8821 18.0484 60.9796 17.5611 60.9796Z" fill="#E8E8E8"/>
<path d="M21.5237 55.5723H22.4984V60.9191H21.5237V55.5723ZM22.0111 54.5433C21.8215 54.5433 21.6625 54.4827 21.5339 54.3617C21.412 54.2406 21.3511 54.0927 21.3511 53.9178C21.3511 53.7429 21.412 53.595 21.5339 53.4739C21.6625 53.3461 21.8215 53.2822 22.0111 53.2822C22.2006 53.2822 22.3563 53.3428 22.4781 53.4638C22.6067 53.5782 22.671 53.7228 22.671 53.8976C22.671 54.0792 22.6067 54.2339 22.4781 54.3617C22.3563 54.4827 22.2006 54.5433 22.0111 54.5433Z" fill="#E8E8E8"/>
<path d="M26.8368 54.17C26.2547 54.17 25.9636 54.4827 25.9636 55.1082V55.5723H27.5272V56.3693H25.9839V60.9191H25.0092V56.3693H24.0955V55.5723H25.0092V55.0981C25.0092 54.5668 25.1649 54.1465 25.4763 53.8371C25.7876 53.5277 26.2242 53.373 26.786 53.373C27.0026 53.373 27.2057 53.3999 27.3952 53.4537C27.5847 53.5075 27.7472 53.5849 27.8826 53.6858L27.5881 54.4222C27.3647 54.2541 27.1143 54.17 26.8368 54.17ZM29.2634 55.5723H30.2381V60.9191H29.2634V55.5723ZM29.7507 54.5433C29.5612 54.5433 29.4021 54.4827 29.2735 54.3617C29.1517 54.2406 29.0908 54.0927 29.0908 53.9178C29.0908 53.7429 29.1517 53.595 29.2735 53.4739C29.4021 53.3461 29.5612 53.2822 29.7507 53.2822C29.9403 53.2822 30.0959 53.3428 30.2178 53.4638C30.3464 53.5782 30.4107 53.7228 30.4107 53.8976C30.4107 54.0792 30.3464 54.2339 30.2178 54.3617C30.0959 54.4827 29.9403 54.5433 29.7507 54.5433Z" fill="#E8E8E8"/>
<path d="M34.9482 60.9796C34.4 60.9796 33.9092 60.8619 33.476 60.6265C33.0496 60.3912 32.7146 60.0683 32.4709 59.6581C32.2272 59.2411 32.1054 58.7703 32.1054 58.2457C32.1054 57.7211 32.2272 57.2537 32.4709 56.8434C32.7146 56.4264 33.0496 56.1036 33.476 55.8749C33.9092 55.6395 34.4 55.5218 34.9482 55.5218C35.4356 55.5218 35.8688 55.6194 36.2478 55.8144C36.6337 56.0094 36.9315 56.2919 37.1413 56.6618L36.4001 57.136C36.2309 56.8804 36.0211 56.6887 35.7706 56.5609C35.5202 56.4332 35.2427 56.3693 34.9381 56.3693C34.5861 56.3693 34.268 56.4466 33.9837 56.6013C33.7062 56.756 33.4862 56.9779 33.3237 57.2671C33.1681 57.5496 33.0902 57.8758 33.0902 58.2457C33.0902 58.6223 33.1681 58.9552 33.3237 59.2444C33.4862 59.5269 33.7062 59.7455 33.9837 59.9002C34.268 60.0549 34.5861 60.1322 34.9381 60.1322C35.2427 60.1322 35.5202 60.0683 35.7706 59.9405C36.0211 59.8128 36.2309 59.6211 36.4001 59.3655L37.1413 59.8296C36.9315 60.1995 36.6337 60.4853 36.2478 60.6871C35.8688 60.8821 35.4356 60.9796 34.9482 60.9796Z" fill="#E8E8E8"/>
<path d="M39.5719 54.7349H37.1352V53.8573H43.0139V54.7349H40.5771V60.9191H39.5719V54.7349Z" fill="#E8E8E8"/>
<path d="M48.7933 58.276C48.7933 58.3499 48.7865 58.4475 48.773 58.5685H44.4071C44.468 59.0393 44.6745 59.4193 45.0265 59.7085C45.3852 59.991 45.8286 60.1322 46.3565 60.1322C46.9995 60.1322 47.5174 59.917 47.9099 59.4866L48.4481 60.112C48.2044 60.3945 47.8998 60.6097 47.5343 60.7577C47.1755 60.9057 46.7728 60.9796 46.3261 60.9796C45.7575 60.9796 45.2532 60.8653 44.8132 60.6366C44.3733 60.4012 44.0315 60.075 43.7878 59.6581C43.5509 59.2411 43.4324 58.7703 43.4324 58.2457C43.4324 57.7278 43.5475 57.2604 43.7776 56.8434C44.0145 56.4264 44.3361 56.1036 44.7422 55.8749C45.1551 55.6395 45.6187 55.5218 46.1331 55.5218C46.6476 55.5218 47.1045 55.6395 47.5038 55.8749C47.9099 56.1036 48.2247 56.4264 48.4481 56.8434C48.6782 57.2604 48.7933 57.7379 48.7933 58.276ZM46.1331 56.339C45.6661 56.339 45.2735 56.4802 44.9554 56.7627C44.644 57.0452 44.4613 57.4151 44.4071 57.8724H47.8592C47.805 57.4218 47.6189 57.0553 47.3008 56.7728C46.9894 56.4836 46.6002 56.339 46.1331 56.339Z" fill="#E8E8E8"/>
<path d="M52.9997 60.9796C52.4515 60.9796 51.9607 60.8619 51.5275 60.6265C51.1011 60.3912 50.7661 60.0683 50.5224 59.6581C50.2787 59.2411 50.1569 58.7703 50.1569 58.2457C50.1569 57.7211 50.2787 57.2537 50.5224 56.8434C50.7661 56.4264 51.1011 56.1036 51.5275 55.8749C51.9607 55.6395 52.4515 55.5218 52.9997 55.5218C53.4871 55.5218 53.9203 55.6194 54.2993 55.8144C54.6852 56.0094 54.983 56.2919 55.1928 56.6618L54.4516 57.136C54.2824 56.8804 54.0726 56.6887 53.8221 56.5609C53.5717 56.4332 53.2942 56.3693 52.9896 56.3693C52.6376 56.3693 52.3195 56.4466 52.0352 56.6013C51.7577 56.756 51.5377 56.9779 51.3752 57.2671C51.2196 57.5496 51.1417 57.8758 51.1417 58.2457C51.1417 58.6223 51.2196 58.9552 51.3752 59.2444C51.5377 59.5269 51.7577 59.7455 52.0352 59.9002C52.3195 60.0549 52.6376 60.1322 52.9896 60.1322C53.2942 60.1322 53.5717 60.0683 53.8221 59.9405C54.0726 59.8128 54.2824 59.6211 54.4516 59.3655L55.1928 59.8296C54.983 60.1995 54.6852 60.4853 54.2993 60.6871C53.9203 60.8821 53.4871 60.9796 52.9997 60.9796Z" fill="#E8E8E8"/>
<path d="M59.7663 55.5218C60.4499 55.5218 60.9914 55.7202 61.3908 56.1171C61.7969 56.5071 62 57.0822 62 57.8422V60.9191H61.0253V57.9531C61.0253 57.4353 60.9001 57.0452 60.6496 56.7829C60.3992 56.5206 60.0404 56.3894 59.5734 56.3894C59.0454 56.3894 58.6292 56.5441 58.3246 56.8535C58.02 57.1562 57.8677 57.5933 57.8677 58.165V60.9191H56.893V53.4336H57.8677V56.3289C58.0707 56.0733 58.3347 55.8749 58.6596 55.7337C58.9913 55.5925 59.3602 55.5218 59.7663 55.5218Z" fill="#E8E8E8"/>
<path d="M69.7592 60.9998C69.2244 60.9998 68.7066 60.9191 68.2057 60.7577C67.7116 60.5896 67.3224 60.3743 67.0381 60.112L67.4138 59.3251C67.6846 59.5673 68.0298 59.7657 68.4494 59.9204C68.8759 60.0683 69.3124 60.1423 69.7592 60.1423C70.3481 60.1423 70.788 60.0448 71.0791 59.8497C71.3701 59.648 71.5157 59.3823 71.5157 59.0528C71.5157 58.8106 71.4344 58.6156 71.272 58.4676C71.1163 58.313 70.92 58.1953 70.6831 58.1145C70.453 58.0338 70.1247 57.943 69.6982 57.8422C69.1635 57.7144 68.7303 57.5866 68.3987 57.4588C68.0738 57.331 67.7929 57.136 67.556 56.8737C67.3258 56.6047 67.2107 56.2448 67.2107 55.7942C67.2107 55.4176 67.3089 55.078 67.5052 54.7753C67.7082 54.4727 68.0128 54.2305 68.419 54.0489C68.8251 53.8674 69.3294 53.7766 69.9318 53.7766C70.3514 53.7766 70.7643 53.8304 71.1705 53.938C71.5766 54.0456 71.9252 54.2003 72.2162 54.402L71.8812 55.2091C71.5834 55.0208 71.2652 54.8795 70.9268 54.7854C70.5883 54.6845 70.2567 54.6341 69.9318 54.6341C69.3564 54.6341 68.9232 54.7383 68.6322 54.9468C68.3479 55.1553 68.2057 55.4243 68.2057 55.7539C68.2057 55.996 68.287 56.1944 68.4494 56.3491C68.6119 56.497 68.8115 56.6147 69.0485 56.7022C69.2921 56.7829 69.6204 56.8703 70.0333 56.9645C70.568 57.0923 70.9978 57.22 71.3227 57.3478C71.6477 57.4756 71.9252 57.6707 72.1553 57.933C72.3922 58.1953 72.5107 58.5483 72.5107 58.9922C72.5107 59.3621 72.4091 59.7018 72.2061 60.0112C72.003 60.3138 71.695 60.5559 71.2821 60.7375C70.8692 60.9124 70.3616 60.9998 69.7592 60.9998Z" fill="#E8E8E8"/>
<path d="M76.6642 60.9796C76.1295 60.9796 75.6489 60.8619 75.2225 60.6265C74.7961 60.3912 74.461 60.0683 74.2173 59.6581C73.9804 59.2411 73.862 58.7703 73.862 58.2457C73.862 57.7211 73.9804 57.2537 74.2173 56.8434C74.461 56.4264 74.7961 56.1036 75.2225 55.8749C75.6489 55.6395 76.1295 55.5218 76.6642 55.5218C77.199 55.5218 77.6762 55.6395 78.0958 55.8749C78.5222 56.1036 78.8539 56.4264 79.0908 56.8434C79.3345 57.2537 79.4563 57.7211 79.4563 58.2457C79.4563 58.7703 79.3345 59.2411 79.0908 59.6581C78.8539 60.0683 78.5222 60.3912 78.0958 60.6265C77.6762 60.8619 77.199 60.9796 76.6642 60.9796ZM76.6642 60.1322C77.0094 60.1322 77.3174 60.0549 77.5882 59.9002C77.8657 59.7388 78.0823 59.5168 78.238 59.2344C78.3936 58.9452 78.4715 58.6156 78.4715 58.2457C78.4715 57.8758 78.3936 57.5496 78.238 57.2671C78.0823 56.9779 77.8657 56.756 77.5882 56.6013C77.3174 56.4466 77.0094 56.3693 76.6642 56.3693C76.319 56.3693 76.0077 56.4466 75.7301 56.6013C75.4594 56.756 75.2428 56.9779 75.0803 57.2671C74.9247 57.5496 74.8468 57.8758 74.8468 58.2457C74.8468 58.6156 74.9247 58.9452 75.0803 59.2344C75.2428 59.5168 75.4594 59.7388 75.7301 59.9002C76.0077 60.0549 76.319 60.1322 76.6642 60.1322Z" fill="#E8E8E8"/>
<path d="M81.312 53.4336H82.2867V60.9191H81.312V53.4336Z" fill="#E8E8E8"/>
<path d="M89.671 55.5723V60.9191H88.747V60.112C88.5508 60.3878 88.2902 60.603 87.9653 60.7577C87.6471 60.9057 87.2985 60.9796 86.9195 60.9796C86.202 60.9796 85.6368 60.7846 85.2239 60.3945C84.811 59.9977 84.6046 59.4159 84.6046 58.6492V55.5723H85.5793V58.5383C85.5793 59.0561 85.7045 59.4496 85.9549 59.7186C86.2054 59.9809 86.5641 60.112 87.0312 60.112C87.5456 60.112 87.9517 59.9574 88.2495 59.648C88.5474 59.3386 88.6963 58.9014 88.6963 58.3365V55.5723H89.671Z" fill="#E8E8E8"/>
<path d="M95.0598 60.6064C94.9177 60.7274 94.7417 60.8216 94.5319 60.8888C94.322 60.9494 94.1054 60.9796 93.8821 60.9796C93.3406 60.9796 92.9209 60.835 92.6231 60.5458C92.3252 60.2566 92.1763 59.843 92.1763 59.305V56.3693H91.2626V55.5723H92.1763V54.402H93.151V55.5723H94.6943V56.3693H93.151V59.2646C93.151 59.5538 93.2221 59.7758 93.3643 59.9304C93.5132 60.0851 93.723 60.1625 93.9938 60.1625C94.2916 60.1625 94.5454 60.0784 94.7552 59.9103L95.0598 60.6064Z" fill="#E8E8E8"/>
<path d="M96.7459 55.5723H97.7206V60.9191H96.7459V55.5723ZM97.2332 54.5433C97.0437 54.5433 96.8846 54.4827 96.756 54.3617C96.6342 54.2406 96.5733 54.0927 96.5733 53.9178C96.5733 53.7429 96.6342 53.595 96.756 53.4739C96.8846 53.3461 97.0437 53.2822 97.2332 53.2822C97.4227 53.2822 97.5784 53.3428 97.7003 53.4638C97.8289 53.5782 97.8932 53.7228 97.8932 53.8976C97.8932 54.0792 97.8289 54.2339 97.7003 54.3617C97.5784 54.4827 97.4227 54.5433 97.2332 54.5433Z" fill="#E8E8E8"/>
<path d="M102.394 60.9796C101.859 60.9796 101.379 60.8619 100.952 60.6265C100.526 60.3912 100.191 60.0683 99.9471 59.6581C99.7102 59.2411 99.5918 58.7703 99.5918 58.2457C99.5918 57.7211 99.7102 57.2537 99.9471 56.8434C100.191 56.4264 100.526 56.1036 100.952 55.8749C101.379 55.6395 101.859 55.5218 102.394 55.5218C102.929 55.5218 103.406 55.6395 103.826 55.8749C104.252 56.1036 104.584 56.4264 104.821 56.8434C105.064 57.2537 105.186 57.7211 105.186 58.2457C105.186 58.7703 105.064 59.2411 104.821 59.6581C104.584 60.0683 104.252 60.3912 103.826 60.6265C103.406 60.8619 102.929 60.9796 102.394 60.9796ZM102.394 60.1322C102.739 60.1322 103.047 60.0549 103.318 59.9002C103.595 59.7388 103.812 59.5168 103.968 59.2344C104.123 58.9452 104.201 58.6156 104.201 58.2457C104.201 57.8758 104.123 57.5496 103.968 57.2671C103.812 56.9779 103.595 56.756 103.318 56.6013C103.047 56.4466 102.739 56.3693 102.394 56.3693C102.049 56.3693 101.737 56.4466 101.46 56.6013C101.189 56.756 100.973 56.9779 100.81 57.2671C100.654 57.5496 100.577 57.8758 100.577 58.2457C100.577 58.6156 100.654 58.9452 100.81 59.2344C100.973 59.5168 101.189 59.7388 101.46 59.9002C101.737 60.0549 102.049 60.1322 102.394 60.1322Z" fill="#E8E8E8"/>
<path d="M109.915 55.5218C110.599 55.5218 111.14 55.7202 111.54 56.1171C111.946 56.5071 112.149 57.0822 112.149 57.8422V60.9191H111.174V57.9531C111.174 57.4353 111.049 57.0452 110.798 56.7829C110.548 56.5206 110.189 56.3894 109.722 56.3894C109.194 56.3894 108.778 56.5441 108.473 56.8535C108.169 57.1562 108.016 57.5933 108.016 58.165V60.9191H107.042V55.5723H107.976V56.3794C108.172 56.1036 108.436 55.8917 108.768 55.7438C109.106 55.5958 109.489 55.5218 109.915 55.5218Z" fill="#E8E8E8"/>
<path d="M116.004 60.9796C115.564 60.9796 115.141 60.9225 114.734 60.8081C114.328 60.6871 114.01 60.5357 113.78 60.3542L114.186 59.5874C114.423 59.7556 114.711 59.8901 115.049 59.991C115.388 60.0919 115.729 60.1423 116.075 60.1423C116.927 60.1423 117.354 59.9002 117.354 59.4159C117.354 59.2545 117.296 59.1267 117.181 59.0326C117.066 58.9384 116.921 58.8712 116.745 58.8308C116.575 58.7837 116.332 58.7333 116.014 58.6795C115.58 58.6122 115.225 58.5349 114.948 58.4475C114.677 58.36 114.443 58.2121 114.247 58.0036C114.051 57.7951 113.953 57.5025 113.953 57.1259C113.953 56.6416 114.156 56.2549 114.562 55.9657C114.968 55.6698 115.513 55.5218 116.196 55.5218C116.555 55.5218 116.914 55.5656 117.273 55.653C117.631 55.7404 117.926 55.8581 118.156 56.0061L117.74 56.7728C117.3 56.4903 116.782 56.3491 116.186 56.3491C115.773 56.3491 115.459 56.4163 115.242 56.5509C115.025 56.6854 114.917 56.8636 114.917 57.0855C114.917 57.2604 114.978 57.3983 115.1 57.4992C115.222 57.6 115.371 57.674 115.547 57.7211C115.729 57.7682 115.983 57.822 116.308 57.8825C116.741 57.9565 117.09 58.0372 117.354 58.1246C117.625 58.2053 117.855 58.3466 118.044 58.5483C118.234 58.7501 118.329 59.0326 118.329 59.3958C118.329 59.88 118.119 60.2667 117.699 60.5559C117.286 60.8384 116.721 60.9796 116.004 60.9796Z" fill="#E8E8E8"/>
</g>
</g>
</svg>
