<svg width="156" height="59" viewBox="0 0 156 59" fill="none" xmlns="http://www.w3.org/2000/svg">
<path d="M0 0V17.528H72.4479V59H91.3087V17.528H155.811V0H0Z" fill="#232323"/>
<path fill-rule="evenodd" clip-rule="evenodd" d="M95.1473 23.4734C96.3539 34.2572 103.995 38.1747 116.627 38.1747H134.352C136.238 38.1747 137.52 38.7784 137.52 40.2875C137.52 41.9475 136.238 42.5511 134.352 42.5511H103.232V59.0003H134.352C148.156 59.0003 156 54.3221 156 41.1175C156 29.6054 150.038 24.574 139.362 23.4734H95.1473Z" fill="#232323"/>
<path fill-rule="evenodd" clip-rule="evenodd" d="M47.9723 23.473V28.2566C47.9723 32.3032 44.8797 33.8769 39.9015 33.8769H18.5553H1.15465e-05V58.7558H18.5553V50.213H39.9015C56.8728 50.213 66.5276 44.4429 66.5276 28.2566V24.5098C66.5276 24.1593 66.523 23.8137 66.514 23.473H47.9723Z" fill="#232323"/>
</svg>
