<svg width="60" height="60" viewBox="0 0 60 60" fill="none" xmlns="http://www.w3.org/2000/svg">
<path d="M25.5217 18.9402L29.9996 16.586L34.4776 18.9402C34.7099 19.0623 34.9716 19.117 35.2334 19.0981C35.4951 19.0792 35.7463 18.9875 35.9586 18.8332C36.1708 18.679 36.3358 18.4685 36.4346 18.2254C36.5335 17.9824 36.5624 17.7165 36.5181 17.4579L35.6626 12.4714L39.2856 8.94012C39.4735 8.75697 39.6064 8.5249 39.6692 8.27016C39.7321 8.01542 39.7225 7.74817 39.6414 7.49862C39.5603 7.24908 39.4111 7.02719 39.2105 6.85805C39.0099 6.68892 38.7659 6.57928 38.5063 6.54153L33.4997 5.81403L31.2607 1.27758C31.1446 1.04227 30.9649 0.844145 30.7421 0.705609C30.5192 0.567072 30.2621 0.493652 29.9996 0.493652C29.7372 0.493652 29.4801 0.567072 29.2572 0.705609C29.0344 0.844145 28.8547 1.04227 28.7386 1.27758L26.4996 5.81403L21.493 6.54153C21.2333 6.57928 20.9894 6.68892 20.7888 6.85805C20.5882 7.02719 20.439 7.24908 20.3579 7.49862C20.2768 7.74817 20.2672 8.01542 20.33 8.27016C20.3929 8.5249 20.5258 8.75697 20.7137 8.94012L24.3364 12.4714L23.481 17.4579C23.4366 17.7165 23.4655 17.9824 23.5644 18.2254C23.6633 18.4685 23.8282 18.679 24.0405 18.8332C24.2528 18.9875 24.504 19.0792 24.7657 19.0981C25.0274 19.117 25.2892 19.0623 25.5214 18.9402H25.5217Z" fill="url(#paint0_radial_203_2604)"/>
<path d="M58.9493 21.3742L54.9018 18.339L55.1074 13.2839C55.1181 13.0216 55.0552 12.7616 54.9258 12.5333C54.7965 12.3049 54.6057 12.1174 54.3753 11.9918C54.1448 11.8662 53.8838 11.8076 53.6218 11.8226C53.3598 11.8377 53.1072 11.9257 52.8926 12.0769L48.7556 14.9884L44.0115 13.2306C43.7655 13.1394 43.4989 13.1189 43.2418 13.1714C42.9847 13.2239 42.7475 13.3473 42.5568 13.5275C42.3662 13.7078 42.2298 13.9378 42.1631 14.1916C42.0963 14.4453 42.1019 14.7127 42.1792 14.9634L43.6697 19.7981L40.5321 23.7669C40.3694 23.9727 40.2675 24.22 40.2379 24.4807C40.2084 24.7415 40.2524 25.0052 40.365 25.2423C40.4775 25.4793 40.6541 25.6801 40.8749 25.822C41.0956 25.9639 41.3516 26.0412 41.614 26.0451L46.6725 26.1214L49.4775 30.332C49.6059 30.5247 49.7798 30.6827 49.9839 30.792C50.188 30.9013 50.416 30.9585 50.6475 30.9586C50.7082 30.9585 50.7688 30.9546 50.8289 30.9469C51.0891 30.9131 51.3347 30.8071 51.5379 30.641C51.7411 30.4749 51.8937 30.2553 51.9785 30.007L53.6144 25.2196L58.4855 23.853C58.7381 23.7821 58.9659 23.642 59.143 23.4484C59.3202 23.2549 59.4396 23.0156 59.4879 22.7577C59.5361 22.4998 59.5112 22.2335 59.4161 21.989C59.3209 21.7445 59.1592 21.5316 58.9493 21.3742Z" fill="url(#paint1_radial_203_2604)"/>
<path d="M18.3859 26.0453C18.6483 26.0413 18.9043 25.964 19.125 25.8221C19.3457 25.6802 19.5224 25.4794 19.6349 25.2424C19.7475 25.0054 19.7915 24.7416 19.7619 24.4808C19.7324 24.2201 19.6305 23.9728 19.4678 23.767L16.3302 19.7982L17.8207 14.9635C17.898 14.7128 17.9036 14.4454 17.8369 14.1917C17.7702 13.9379 17.6338 13.7079 17.4431 13.5276C17.2525 13.3473 17.0152 13.2239 16.7581 13.1714C16.501 13.1189 16.2344 13.1394 15.9883 13.2306L11.2442 14.9884L7.10753 12.0769C6.89295 11.9257 6.64036 11.8377 6.37833 11.8226C6.1163 11.8076 5.8553 11.8662 5.62484 11.9918C5.39438 12.1174 5.20367 12.3049 5.07428 12.5333C4.94489 12.7616 4.88198 13.0216 4.89268 13.2839L5.09835 18.339L1.05081 21.3742C0.840897 21.5316 0.679216 21.7446 0.584046 21.9891C0.488876 22.2336 0.464013 22.4999 0.512269 22.7578C0.560524 23.0157 0.679974 23.255 0.857111 23.4485C1.03425 23.6421 1.26201 23.7823 1.51464 23.8531L6.38577 25.2197L8.02136 30.0071C8.1062 30.2554 8.25882 30.475 8.46196 30.6411C8.6651 30.8072 8.91066 30.9131 9.17086 30.9469C9.43107 30.9807 9.69554 30.9411 9.93438 30.8324C10.1732 30.7238 10.3769 30.5505 10.5224 30.3321L13.3274 26.1215L18.3859 26.0453Z" fill="url(#paint2_radial_203_2604)"/>
<path d="M47.3438 40.7815C47.9673 40.7814 48.5732 40.5742 49.0663 40.1924C49.5593 39.8106 49.9116 39.2758 50.0677 38.6721C49.9116 38.0683 49.5593 37.5336 49.0663 37.1517C48.5732 36.7699 47.9673 36.5627 47.3438 36.5627H37.0312V30.1174C37.0312 28.364 37.0312 24.8684 32.4314 24.4221C32.3014 24.4099 32.1703 24.425 32.0465 24.4664C31.9226 24.5078 31.8088 24.5746 31.7123 24.6625C31.6158 24.7505 31.5387 24.8576 31.486 24.9771C31.4333 25.0966 31.4061 25.2257 31.4062 25.3563V31.7271C31.4062 31.9005 31.3581 32.0706 31.2671 32.2183L28.5938 36.5627H28.7109L24.8438 39.0882V57.1535C25.4134 57.4837 26.0603 57.6572 26.7188 57.6564H45.4688C46.0923 57.6564 46.6982 57.4492 47.1913 57.0674C47.6843 56.6856 48.0366 56.1508 48.1927 55.5471C48.0366 54.9433 47.6843 54.4086 47.1913 54.0267C46.6982 53.6449 46.0923 53.4377 45.4688 53.4377H42.6562V52.0315H46.4062C47.0298 52.0314 47.6357 51.8242 48.1288 51.4424C48.6218 51.0606 48.9741 50.5258 49.1302 49.9221C48.9741 49.3183 48.6218 48.7836 48.1288 48.4017C47.6357 48.0199 47.0298 47.8127 46.4062 47.8127H42.6562V46.4065H47.3438C47.9673 46.4064 48.5732 46.1992 49.0663 45.8174C49.5593 45.4356 49.9116 44.9008 50.0677 44.2971C49.9116 43.6933 49.5593 43.1586 49.0663 42.7767C48.5732 42.3949 47.9673 42.1877 47.3438 42.1877H42.6562V40.7815H47.3438Z" fill="url(#paint3_radial_203_2604)"/>
<path d="M22.0312 36.5625H12.6562C12.2833 36.5625 11.9256 36.7107 11.6619 36.9744C11.3982 37.2381 11.25 37.5958 11.25 37.9688V57.6562C11.25 58.0292 11.3982 58.3869 11.6619 58.6506C11.9256 58.9143 12.2833 59.0625 12.6562 59.0625H22.0312C22.4042 59.0625 22.7619 58.9143 23.0256 58.6506C23.2893 58.3869 23.4375 58.0292 23.4375 57.6562V37.9688C23.4375 37.5958 23.2893 37.2381 23.0256 36.9744C22.7619 36.7107 22.4042 36.5625 22.0312 36.5625ZM17.3438 56.8359C17.0656 56.8359 16.7937 56.7535 16.5625 56.5989C16.3312 56.4444 16.151 56.2248 16.0445 55.9678C15.9381 55.7109 15.9103 55.4281 15.9645 55.1553C16.0188 54.8826 16.1527 54.632 16.3494 54.4353C16.546 54.2386 16.7966 54.1047 17.0694 54.0505C17.3422 53.9962 17.6249 54.024 17.8819 54.1305C18.1389 54.2369 18.3585 54.4172 18.513 54.6484C18.6675 54.8797 18.75 55.1516 18.75 55.4297C18.75 55.8026 18.6018 56.1603 18.3381 56.4241C18.0744 56.6878 17.7167 56.8359 17.3438 56.8359Z" fill="url(#paint4_radial_203_2604)"/>
<defs>
<radialGradient id="paint0_radial_203_2604" cx="0" cy="0" r="1" gradientUnits="userSpaceOnUse" gradientTransform="translate(19.1271 2.69376) rotate(43.8602) scale(25.8225 25.8022)">
<stop/>
<stop offset="0.625299" stop-color="#142743"/>
<stop offset="1" stop-color="#38618A"/>
</radialGradient>
<radialGradient id="paint1_radial_203_2604" cx="0" cy="0" r="1" gradientUnits="userSpaceOnUse" gradientTransform="translate(39.0753 14.0831) rotate(44.8694) scale(26.0841 26.084)">
<stop/>
<stop offset="0.625299" stop-color="#142743"/>
<stop offset="1" stop-color="#38618A"/>
</radialGradient>
<radialGradient id="paint2_radial_203_2604" cx="0" cy="0" r="1" gradientUnits="userSpaceOnUse" gradientTransform="translate(-0.665378 14.0831) rotate(44.8699) scale(26.084 26.0839)">
<stop/>
<stop offset="0.625299" stop-color="#142743"/>
<stop offset="1" stop-color="#38618A"/>
</radialGradient>
<radialGradient id="paint3_radial_203_2604" cx="0" cy="0" r="1" gradientUnits="userSpaceOnUse" gradientTransform="translate(23.3346 28.3479) rotate(52.8878) scale(40.0776 38.5681)">
<stop/>
<stop offset="0.625299" stop-color="#142743"/>
<stop offset="1" stop-color="#38618A"/>
</radialGradient>
<radialGradient id="paint4_radial_203_2604" cx="0" cy="0" r="1" gradientUnits="userSpaceOnUse" gradientTransform="translate(10.5208 39.2228) rotate(61.6282) scale(24.5881 20.5612)">
<stop/>
<stop offset="0.625299" stop-color="#142743"/>
<stop offset="1" stop-color="#38618A"/>
</radialGradient>
</defs>
</svg>
