<svg width="54" height="60" viewBox="0 0 54 60" fill="none" xmlns="http://www.w3.org/2000/svg">
<path d="M27 5.49129C27.9708 5.49129 28.7578 4.70426 28.7578 3.73348V1.75781C28.7578 0.787031 27.9708 0 27 0C26.0292 0 25.2422 0.787031 25.2422 1.75781V3.73348C25.2422 4.70426 26.0292 5.49129 27 5.49129Z" fill="url(#paint0_radial_203_2594)"/>
<path d="M43.8249 7.66721L42.3537 9.13838C41.6672 9.82486 41.6672 10.9378 42.3537 11.6243C42.697 11.9675 43.1469 12.1392 43.5966 12.1392C44.0464 12.1392 44.4964 11.9676 44.8395 11.6243L46.3107 10.1531C46.9972 9.46662 46.9972 8.35369 46.3107 7.66721C45.6244 6.98072 44.5114 6.98072 43.8249 7.66721Z" fill="url(#paint1_radial_203_2594)"/>
<path d="M51.8995 25.2202H49.9238C48.953 25.2202 48.166 26.0072 48.166 26.978C48.166 27.9488 48.953 28.7358 49.9238 28.7358H51.8995C52.8703 28.7358 53.6573 27.9488 53.6573 26.978C53.6573 26.0072 52.8703 25.2202 51.8995 25.2202Z" fill="url(#paint2_radial_203_2594)"/>
<path d="M4.07588 25.2202H2.1001C1.12932 25.2202 0.342285 26.0072 0.342285 26.978C0.342285 27.9488 1.12932 28.7358 2.1001 28.7358H4.07576C5.04654 28.7358 5.83357 27.9488 5.83357 26.978C5.83357 26.0072 5.04666 25.2202 4.07588 25.2202Z" fill="url(#paint3_radial_203_2594)"/>
<path d="M10.4034 12.1392C10.8532 12.1392 11.3031 11.9676 11.6463 11.6243C12.3327 10.9378 12.3327 9.82486 11.6463 9.13838L10.1751 7.66721C9.48871 6.98072 8.37566 6.98072 7.68918 7.66721C7.0027 8.35369 7.0027 9.46662 7.68918 10.1531L9.16035 11.6243C9.50359 11.9676 9.95348 12.1392 10.4034 12.1392Z" fill="url(#paint4_radial_203_2594)"/>
<path d="M18.603 53.6729V55.3291C18.603 57.9047 20.6985 60.0002 23.274 60.0002H30.7262C33.3019 60.0002 35.3972 57.9047 35.3972 55.3291V53.6729H18.603Z" fill="url(#paint5_radial_203_2594)"/>
<path d="M27 8.85791C16.9429 8.85791 8.76074 17.0401 8.76074 27.0972C8.76074 32.9076 11.5052 38.3192 16.148 41.7572L16.1849 47.2514C16.1891 47.7612 16.3251 48.2408 16.5603 48.6576C17.0759 49.5719 18.0704 50.1111 19.12 50.1111H25.2422V30.4545C23.7318 30.0417 22.3986 29.1056 21.4966 27.7763C20.9552 26.9783 21.1274 25.8706 21.9167 25.3164C22.7278 24.7468 23.8443 24.9597 24.3905 25.7798C24.9821 26.6677 25.9332 27.1769 27 27.1769C28.0491 27.1769 28.9862 26.6845 29.5797 25.8237C30.1315 25.0233 31.2166 24.7505 32.0312 25.281C32.852 25.8155 33.0769 26.9157 32.5353 27.7288C31.633 29.0833 30.2861 30.0367 28.7579 30.4544V50.1228H34.9698C35.6568 50.1228 36.3334 49.8984 36.8548 49.4512C37.4816 48.9135 37.8793 48.116 37.8793 47.2273V41.7371C42.5051 38.298 45.2393 32.8944 45.2393 27.0972C45.2393 17.0401 37.0572 8.85791 27 8.85791Z" fill="url(#paint6_radial_203_2594)"/>
<defs>
<radialGradient id="paint0_radial_203_2594" cx="0" cy="0" r="1" gradientUnits="userSpaceOnUse" gradientTransform="translate(25.0319 0.649256) rotate(57.449) scale(6.26409 5.68192)">
<stop/>
<stop offset="0.625299" stop-color="#142743"/>
<stop offset="1" stop-color="#38618A"/>
</radialGradient>
<radialGradient id="paint1_radial_203_2594" cx="0" cy="0" r="1" gradientUnits="userSpaceOnUse" gradientTransform="translate(41.5405 7.74196) rotate(45.086) scale(6.77107)">
<stop/>
<stop offset="0.625299" stop-color="#142743"/>
<stop offset="1" stop-color="#38618A"/>
</radialGradient>
<radialGradient id="paint2_radial_203_2594" cx="0" cy="0" r="1" gradientUnits="userSpaceOnUse" gradientTransform="translate(47.8375 25.6359) rotate(32.7054) scale(6.25632 5.68898)">
<stop/>
<stop offset="0.625299" stop-color="#142743"/>
<stop offset="1" stop-color="#38618A"/>
</radialGradient>
<radialGradient id="paint3_radial_203_2594" cx="0" cy="0" r="1" gradientUnits="userSpaceOnUse" gradientTransform="translate(0.0137468 25.6359) rotate(32.7054) scale(6.25632 5.68898)">
<stop/>
<stop offset="0.625299" stop-color="#142743"/>
<stop offset="1" stop-color="#38618A"/>
</radialGradient>
<radialGradient id="paint4_radial_203_2594" cx="0" cy="0" r="1" gradientUnits="userSpaceOnUse" gradientTransform="translate(6.87596 7.74196) rotate(45.0853) scale(6.77115)">
<stop/>
<stop offset="0.625299" stop-color="#142743"/>
<stop offset="1" stop-color="#38618A"/>
</radialGradient>
<radialGradient id="paint5_radial_203_2594" cx="0" cy="0" r="1" gradientUnits="userSpaceOnUse" gradientTransform="translate(17.5983 54.421) rotate(20.7004) scale(17.2115 11.3824)">
<stop/>
<stop offset="0.625299" stop-color="#142743"/>
<stop offset="1" stop-color="#38618A"/>
</radialGradient>
<radialGradient id="paint6_radial_203_2594" cx="0" cy="0" r="1" gradientUnits="userSpaceOnUse" gradientTransform="translate(6.57826 13.7368) rotate(48.6073) scale(52.8899 52.4714)">
<stop/>
<stop offset="0.625299" stop-color="#142743"/>
<stop offset="1" stop-color="#38618A"/>
</radialGradient>
</defs>
</svg>
