<svg width="60" height="60" viewBox="0 0 60 60" fill="none" xmlns="http://www.w3.org/2000/svg">
<g clip-path="url(#clip0_202_2523)">
<path d="M36.5024 16.0931L42.3526 11.8423C43.0099 11.3644 43.2846 10.5184 43.0337 9.74574C42.7829 8.97303 42.0633 8.45026 41.2503 8.45026H34.0176L31.7837 1.57282C31.5329 0.800112 30.8133 0.277344 30.0003 0.277344C29.1873 0.277344 28.4677 0.800112 28.2169 1.57282L25.983 8.45026H18.7503C17.9373 8.45026 17.2177 8.97303 16.9669 9.74574C16.716 10.5184 16.9907 11.3644 17.648 11.8423L23.4982 16.0931L21.2643 22.9714C21.0135 23.7441 21.2881 24.591 21.9455 25.068C22.6047 25.5459 23.4909 25.5459 24.1501 25.068L30.0003 20.8172L35.8505 25.068C36.5022 25.5405 37.4055 25.539 38.0551 25.068C38.7125 24.591 38.9871 23.7441 38.7363 22.9714L36.5024 16.0931Z" fill="url(#paint0_radial_202_2523)"/>
<path d="M16.8753 15.9072H13.8705C13.0557 15.9072 12.3379 15.3863 12.0871 14.6118L11.1587 11.7535C10.9079 10.9808 10.1883 10.458 9.3753 10.458C8.56231 10.458 7.84271 10.9808 7.59185 11.7535L6.6635 14.6118C6.41265 15.3863 5.69488 15.9072 4.88006 15.9072H1.8753C1.06231 15.9072 0.342708 16.43 0.091852 17.2027C-0.159004 17.9754 0.115664 18.8223 0.773002 19.2993L3.20465 21.0644C3.86383 21.5441 4.13666 22.3873 3.8858 23.1619C3.8858 23.1619 2.96062 26.0095 2.95747 26.0192C2.41196 27.6983 4.41106 29.1599 5.84321 28.1158L8.27302 26.3497C8.9322 25.87 9.81843 25.87 10.4776 26.3497C10.4776 26.3497 12.9072 28.1156 12.9074 28.1158C14.3156 29.1393 16.3505 27.7361 15.7932 26.0192L14.8648 23.1628C14.614 22.3873 14.8868 21.5441 15.546 21.0653L17.9776 19.2993C18.635 18.8223 18.9096 17.9754 18.6588 17.2027C18.4079 16.43 17.6883 15.9072 16.8753 15.9072Z" fill="url(#paint1_radial_202_2523)"/>
<path d="M45.1358 23.1619C45.1358 23.1619 44.211 26.0084 44.2075 26.0192C43.6624 27.697 45.6665 29.1559 47.0932 28.1158L49.523 26.3497C50.1822 25.87 51.0684 25.87 51.7276 26.3497L54.1574 28.1158C55.5967 29.1651 57.5904 27.7051 57.0432 26.0192L56.1148 23.1628C55.864 22.3873 56.1368 21.5441 56.796 21.0653L59.2276 19.2993C59.885 18.8223 60.1596 17.9754 59.9088 17.2027C59.6579 16.43 58.9383 15.9072 58.1253 15.9072H55.1205C54.3057 15.9072 53.5879 15.3863 53.3371 14.6118L52.4087 11.7535C52.1579 10.9808 51.4383 10.458 50.6253 10.458C49.8123 10.458 49.0927 10.9808 48.8419 11.7535L47.9135 14.6118C47.6626 15.3863 46.9449 15.9072 46.1301 15.9072H43.1253C42.3123 15.9072 41.5927 16.43 41.3419 17.2027C41.091 17.9754 41.3657 18.8223 42.023 19.2993L44.4547 21.0644C45.1138 21.5441 45.3866 22.3873 45.1358 23.1619Z" fill="url(#paint2_radial_202_2523)"/>
<path d="M32.8125 30H27.1875C24.0857 30 21.5625 32.5232 21.5625 35.625V54.375C21.5625 57.4768 24.0857 60 27.1875 60H32.8125C35.9143 60 38.4375 57.4768 38.4375 54.375V35.625C38.4375 32.5232 35.9143 30 32.8125 30Z" fill="url(#paint3_radial_202_2523)"/>
<path d="M54.375 37.5H48.75C45.6482 37.5 43.125 40.0232 43.125 43.125V54.375C43.125 57.4768 45.6482 60 48.75 60H54.375C57.4768 60 60 57.4768 60 54.375V43.125C60 40.0232 57.4768 37.5 54.375 37.5Z" fill="url(#paint4_radial_202_2523)"/>
<path d="M11.25 37.5H5.625C2.52319 37.5 0 40.0232 0 43.125V54.375C0 57.4768 2.52319 60 5.625 60H11.25C14.3518 60 16.875 57.4768 16.875 54.375V43.125C16.875 40.0232 14.3518 37.5 11.25 37.5Z" fill="url(#paint5_radial_202_2523)"/>
</g>
<defs>
<radialGradient id="paint0_radial_202_2523" cx="0" cy="0" r="1" gradientUnits="userSpaceOnUse" gradientTransform="translate(15.3045 3.25081) rotate(43.8572) scale(34.9012 34.8736)">
<stop/>
<stop offset="0.625299" stop-color="#142743"/>
<stop offset="1" stop-color="#38618A"/>
</radialGradient>
<radialGradient id="paint1_radial_202_2523" cx="0" cy="0" r="1" gradientUnits="userSpaceOnUse" gradientTransform="translate(-1.12183 12.5872) rotate(43.9283) scale(24.9595 24.9421)">
<stop/>
<stop offset="0.625299" stop-color="#142743"/>
<stop offset="1" stop-color="#38618A"/>
</radialGradient>
<radialGradient id="paint2_radial_202_2523" cx="0" cy="0" r="1" gradientUnits="userSpaceOnUse" gradientTransform="translate(40.1282 12.5876) rotate(43.9331) scale(24.9615 24.9443)">
<stop/>
<stop offset="0.625299" stop-color="#142743"/>
<stop offset="1" stop-color="#38618A"/>
</radialGradient>
<radialGradient id="paint3_radial_202_2523" cx="0" cy="0" r="1" gradientUnits="userSpaceOnUse" gradientTransform="translate(20.5529 33.547) rotate(60.7148) scale(33.073 28.2207)">
<stop/>
<stop offset="0.625299" stop-color="#142743"/>
<stop offset="1" stop-color="#38618A"/>
</radialGradient>
<radialGradient id="paint4_radial_202_2523" cx="0" cy="0" r="1" gradientUnits="userSpaceOnUse" gradientTransform="translate(42.1154 40.1603) rotate(53.2117) scale(27.0144 25.9123)">
<stop/>
<stop offset="0.625299" stop-color="#142743"/>
<stop offset="1" stop-color="#38618A"/>
</radialGradient>
<radialGradient id="paint5_radial_202_2523" cx="0" cy="0" r="1" gradientUnits="userSpaceOnUse" gradientTransform="translate(-1.00961 40.1603) rotate(53.2117) scale(27.0144 25.9123)">
<stop/>
<stop offset="0.625299" stop-color="#142743"/>
<stop offset="1" stop-color="#38618A"/>
</radialGradient>
<clipPath id="clip0_202_2523">
<rect width="60" height="60" fill="white"/>
</clipPath>
</defs>
</svg>
